<svg version="1" xmlns="http://www.w3.org/2000/svg" width="300" height="300"><path d="M225.33 1.646H93.191c-10.996 0-20.004 9.007-20.004 20.037v256.291c0 11.02 9.008 20.026 20.004 20.026H225.33c11.007 0 20.015-8.996 20.015-20.014V21.683c0-11.031-9.008-20.037-20.015-20.037zm-87.204 14.441h42.27c1.344 0 2.424 1.08 2.424 2.425s-1.08 2.424-2.424 2.424h-42.27c-1.333 0-2.413-1.079-2.413-2.424s1.08-2.425 2.413-2.425zm21.141 271.906a10 10 0 0 1-10.007-10.007 9.99 9.99 0 0 1 10.007-9.996c5.515 0 10.007 4.47 10.007 9.996s-4.493 10.007-10.007 10.007zm77.036-26.931H83.287V33.184h153.016v227.878z"/><path fill-rule="evenodd" clip-rule="evenodd" fill="#D5D5D5" d="M92.57 72.155h136.552v27.298H92.57V72.155zM92.57 117.664h136.552v27.321H92.57v-27.321zM92.57 163.185h136.552v27.298H92.57v-27.298z"/><path fill-rule="evenodd" clip-rule="evenodd" fill="#CD1816" d="M92.57 72.155h58.527v27.298H92.57V72.155zM92.57 117.664h87.778v27.321H92.57v-27.321zM92.57 163.185h117.042v27.298H92.57v-27.298z"/></svg>