<svg version="1" xmlns="http://www.w3.org/2000/svg" width="300" height="300"><path fill-rule="evenodd" clip-rule="evenodd" fill="#84B61A" d="M204.3 196.1c-15.8 32.6-30.1 43.4-38.8 46.9-2.7 16.4-7 33.5-13.7 48-5 10.4-35.6 7.6-18.3-5.9 8.1-6.4 13.9-23 17.2-41.8A58.8 58.8 0 0 1 136 236l-2.4-6c3.2-5 7-15.7 4.2-37.9-4.7-38.1-29.4-43.8-52.9-53.4 4.6-51.7 45-106.6 72.3-137.2-3.8 77.9 90 106.6 47.2 194.5zm-60.3-88c-19-39.4 0 71 0 71v59.2s18.8-90.7 0-130.2zm-10.4 88.3c2.7 22.2-1 32.9-4.2 37.8 4 9.2 7.5 19.4 8.8 29.2 1 7-15.4 17-11.1 3.8 2-6.2-.5-16.7-5-27.4-6 2.1-19.6 4.4-42.6-4.7-41.5-16.4-39-84-33.8-119.1 23.7 40.5 80.5 20.4 87.9 80.4zm-33.1-14C84 176.2 125 215.3 125 215.3s-8.2-26.7-24.6-32.9z"/></svg>