<svg version="1" xmlns="http://www.w3.org/2000/svg" width="300" height="300"><path fill="#CD1816" d="M125.8 66.9c5.9-17 15.4-24.3 29.7-24.3 14.3 0 23.2 8.6 23.2 17.5 0 11.4-7.8 20.8-26.2 20.8H139v35.4h13.5c19.7 0 29.7 9.4 29.7 21.9 0 11.8-9.7 20.5-25.4 20.5-19.7 0-28.9-9.7-33.2-23.2l-41 11.3c7.5 30 39.1 52.4 75.3 52.4 41.8 0 71.5-25.1 71.5-60A39.6 39.6 0 0 0 189.8 98a39.7 39.7 0 0 0 36.1-39.4c0-31.6-25-55.9-68-55.9-37 0-64.3 20.8-72.4 53.2l40.3 11z"/><path fill-rule="evenodd" clip-rule="evenodd" fill="#CD1816" d="M76.9 237.2a30.1 30.1 0 0 1 29.7 30.4A30 30 0 0 1 77 298 30.1 30.1 0 0 1 47 267.6a30.1 30.1 0 0 1 29.8-30.4z"/><path fill-rule="evenodd" clip-rule="evenodd" fill="#F9D739" d="M151.3 237.2a30.1 30.1 0 0 1 29.8 30.4 30.1 30.1 0 0 1-29.8 30.4 30.1 30.1 0 0 1-29.8-30.4 30.1 30.1 0 0 1 29.8-30.4z"/><path fill-rule="evenodd" clip-rule="evenodd" fill="#13B500" d="M225.7 237.2a30.1 30.1 0 0 1 29.8 30.4 30 30 0 0 1-29.8 30.4 30.1 30.1 0 0 1-29.7-30.4 30.1 30.1 0 0 1 29.7-30.4z"/></svg>