<svg version="1" xmlns="http://www.w3.org/2000/svg" width="300" height="300"><path fill="#CD1816" d="M143.5 152.7l29.7-20.8c23.2-16.2 48.8-32.6 48.8-68 0-34.7-28.9-61.4-69.9-61.4a71.7 71.7 0 0 0-72 54.5l41.6 11c3.2-9.4 10.8-25.6 29.1-25.6 14.8 0 24 10.2 24 21.6 0 8-5.1 17.5-15.1 25.6l-77.1 63h-.3V195h140v-42.3h-78.8z"/><path fill-rule="evenodd" clip-rule="evenodd" fill="#CD1816" d="M111.2 236.7a30 30 0 0 1 29.7 30.4 30 30 0 0 1-29.7 30.4A30 30 0 0 1 81.5 267a30 30 0 0 1 29.7-30.4z"/><path fill-rule="evenodd" clip-rule="evenodd" fill="#F9D739" d="M185.5 236.7a30 30 0 0 1 29.8 30.4 30 30 0 0 1-29.8 30.4 30 30 0 0 1-29.7-30.4 30 30 0 0 1 29.7-30.4z"/></svg>