<svg version="1" xmlns="http://www.w3.org/2000/svg" width="300" height="300"><path fill-rule="evenodd" clip-rule="evenodd" d="M264 178.8c-2.6 20.5-20.8 46.5-38 62.5-29.6 27.7-77 55.2-77 55.2l-.7.4-.6-.4s-47.3-27.5-77-55.2c-17-16-35.2-41.9-37.9-62.3-4.2-32.6 0-125.7 0-127 .6-4.8.6-8.5 4.8-8.5 4.1 0 27.2-.6 35.5-2.2s29.4-8.3 47.4-19.4c13-7.9 23.8-19.3 23.8-19.3s.3-.4 4-.4h4.1s10.8 11.4 23.8 19.4a168 168 0 0 0 47.5 19.3 309 309 0 0 0 35.6 2.2c4.2 0 4.4 4 5 8.8 0 .7 4 94.3-.2 126.9zM246.5 66.6c-.5-4-.5-7.3-4-7.3s-23.2-.4-30.2-1.8-25-7-40.3-16.4c-11-6.7-20.1-16.4-20.1-16.4l-3.3-.3-3.4.2s-9.4 10-20.3 16.8c-15.3 9.4-33.2 15-40.2 16.4-7 1.4-26.6 1.8-30.1 1.8-3.6 0-3.6 3.2-4 7.3-.1 2.3-3.7 80 0 107.6 2.2 17.3 17.6 39.3 32.1 52.8a438 438 0 0 0 65.2 46.8l.5.3.6-.3s40.2-23.4 65.3-46.8c14.5-13.6 30-35.6 32.2-53 3.6-27.6.1-103.8 0-107.7z"/><path fill="#CD1816" d="M139.1 184.6l22.2-16c17.4-12.7 36.5-25.4 36.5-52.9 0-27-21.5-47.7-52.2-47.7a54 54 0 0 0-53.9 42.3l31.1 8.6c2.4-7.4 8-20 21.8-20 11 0 18 8 18 16.8 0 6.3-3.9 13.6-11.4 20l-57.6 49h-.2v32.8H198v-32.9h-58.9z"/></svg>