<svg version="1" xmlns="http://www.w3.org/2000/svg" width="300" height="300"><path d="M133.361 94.628l-26.914-37.042 2.004-1.457 26.914 37.042-2.004 1.457zM202.551 94.59l-2.005-1.456 34.038-46.848 2.005 1.457-34.038 46.847zM43.354 181.9l-.766-2.356 70.617-22.945.766 2.356L43.354 181.9zM266.31 173.381l-44.397-14.427.766-2.356 44.397 14.427-.766 2.356zM169.182 262.185h-2.478v-64.91h2.478v64.91zM119.751 140.116c0-26.616 21.576-48.192 48.191-48.192 26.616 0 48.192 21.577 48.192 48.192 0 26.617-21.576 48.193-48.192 48.193-26.615 0-48.191-21.577-48.191-48.193z"/><path fill="#CD1816" d="M266.692 198.059c-14.258 0-25.857-11.599-25.857-25.856 0-14.257 11.6-25.856 25.857-25.856s25.856 11.6 25.856 25.856c.001 14.257-11.599 25.856-25.856 25.856z"/><path d="M167.942 179.018c-21.45 0-38.901-17.451-38.901-38.902 0-21.45 17.451-38.902 38.901-38.902 21.451 0 38.902 17.452 38.902 38.902.001 21.45-17.45 38.902-38.902 38.902z"/><path fill="#CD1816" d="M42.971 214.243c-18.483 0-33.52-15.037-33.52-33.521s15.037-33.521 33.52-33.521c18.483 0 33.521 15.037 33.521 33.521s-15.037 33.521-33.521 33.521zM167.942 293.062c-17.026 0-30.878-13.851-30.878-30.877s13.852-30.878 30.878-30.878 30.878 13.852 30.878 30.878-13.851 30.877-30.878 30.877z"/><path d="M107.45 85.62c-15.86 0-28.763-12.903-28.763-28.763S91.59 28.093 107.45 28.093c15.861 0 28.765 12.903 28.765 28.764S123.311 85.62 107.45 85.62z"/><path fill="#CD1816" d="M235.587 85.092c-20.996 0-38.078-17.081-38.078-38.077s17.082-38.077 38.078-38.077c20.995 0 38.076 17.081 38.076 38.077s-17.081 38.077-38.076 38.077z"/><path d="M229.487 157.776a7.192 7.192 0 1 1-14.385 0 7.194 7.194 0 0 1 14.385 0z"/><path d="M227.713 157.776a5.418 5.418 0 1 1-10.837 0 5.418 5.418 0 0 1 10.837 0zM175.136 197.289a7.193 7.193 0 1 1-14.386 0 7.193 7.193 0 0 1 14.386 0z"/><path d="M173.36 197.289a5.418 5.418 0 1 1-10.837 0 5.418 5.418 0 0 1 10.837 0zM120.774 157.776a7.192 7.192 0 1 1-14.385 0 7.193 7.193 0 1 1 14.385 0z"/><path d="M118.999 157.776a5.418 5.418 0 1 1-10.835 0 5.418 5.418 0 0 1 10.835 0zM141.557 93.85a7.193 7.193 0 0 1-14.386 0 7.193 7.193 0 1 1 14.386 0z"/><path d="M139.781 93.85a5.417 5.417 0 1 1-10.834 0 5.417 5.417 0 1 1 10.834 0zM208.741 93.856a7.194 7.194 0 1 1-14.387-.001 7.194 7.194 0 0 1 14.387.001z"/><path d="M206.966 93.856a5.418 5.418 0 1 1-10.837 0 5.418 5.418 0 0 1 10.837 0z"/><path fill="#CD1816" d="M107.45 85.62c-15.86 0-28.763-12.903-28.763-28.763S91.59 28.093 107.45 28.093c15.861 0 28.765 12.903 28.765 28.764S123.311 85.62 107.45 85.62z"/></svg>