<svg version="1" xmlns="http://www.w3.org/2000/svg" width="125.833" height="57.167"><path fill="#1D1D1B" d="M45.371 55.321v-4.597l-10.71-17.953c2.641-.826 4.806-2.279 6.467-4.351 2.621-3.188 3.948-6.764 3.948-10.632 0-2.878-.521-5.4-1.547-7.497-.984-2.176-2.271-3.858-3.829-5.015-1.902-1.571-3.78-2.612-5.604-3.111a28.438 28.438 0 0 0-5.777-.577H10.021V55.32h6.884V33.579h8.98L39.17 55.321h6.201zM16.905 26.844V8.328h11.836c2.217-.062 4.198.49 5.887 1.607a7.196 7.196 0 0 1 2.653 2.821c.608 1.326.911 2.936.911 4.812 0 2.286-.741 4.392-2.204 6.261-1.562 1.951-3.901 2.963-6.954 3.015H16.905z"/><path fill="#CD1816" d="M89.065 1.585h-6.177l-11.965 19.56-11.965-19.56h-6.205v4.478l13.699 22.39-13.699 22.348v4.519h6.205l11.965-19.557L82.888 55.32h6.177l-.002-4.518-13.669-22.349L89.065 6.068z"/><path fill="#1D1D1B" d="M114.076 26.953h9.777v5.711h-9.777v11.141h-6.071V32.664h-9.828v-5.711h9.828V16.534h6.071z"/></svg>