<svg version="1" xmlns="http://www.w3.org/2000/svg" width="300" height="300"><path d="M52 102l-14.2-8.2-14.2-8.3-3.3 5.8 28.4 16.4z"/><path d="M49 109.1L19 91.7l4.3-7.5 30.2 17.4-4.3 7.5zM21.7 91l26.8 15.5 2.3-4-26.8-15.5-2.3 4zM37.3 139l-16.2-2.8L5 133.3 3.8 140l32.4 5.7z"/><path d="M37 146.8l-34.4-6.1 1.5-8.5 18.2 3.2 16.2 2.8-1.5 8.6zM5 139l30.4 5.3.8-4.5-16.2-3-14.2-2.4L5 139zm68.5 109l-21.2 25.1 5.1 4.3L68 264.9l10.6-12.6z"/><path d="M57.5 278.9l-6.6-5.6 22.4-26.7 6.7 5.6-22.4 26.7zm-3.8-5.8l3.6 3 19.9-23.7-3.6-3-19.9 23.7zM203.4 24.6l-6.2-2.2-1.5 4-9.8 26.9 6.3 2.2 5.6-15.4z"/><path d="M192.8 56.8l-8.2-3 12-32.7 8.1 3-6.3 17.2-5.6 15.5zm-5.6-4.1l4.4 1.6 5.6-15.5 5-13.6-4.4-1.6-10.6 29zm-2.4-34l6.4 1.8-4.2 15.9-6.5-1.8z"/><path d="M187.7 37.6l-8.4-2.2 4.8-17.9 8.3 2.3-4.7 17.8zm-6-3.7l4.6 1.2 3.7-14-4.5-1.1-3.7 14zm-5.8-.3l-6.6-1.2 2.9-16.1 6.5 1.1z"/><path d="M176.7 34.8l-8.6-1.5 3.2-18.2 8.6 1.5-3.2 18.2zm-6.2-3.2l4.5.8 2.5-14.2-4.5-.8-2.5 14.2zm-12.6-.4l6.6.6 1.5-16.4-6.7-.5z"/><path d="M165.5 33l-8.7-.8 1.6-18.4 8.7.7-1.6 18.4zm-6.5-2.7l4.6.4 1.3-14.4-4.6-.4-1.3 14.4zm-12.5.7v16.5h6.6v-33h-6.6z"/><path d="M154.1 48.5h-8.6v-35h8.6v35zm-6.6-2h4.6v-31h-4.6v31zM135 31.8l-1.4-16.4 6.6-.5 1.5 16.3z"/><path d="M134.1 33l-1.6-18.5 8.6-.7 1.7 18.4-8.7.7zm.6-16.6l1.3 14.3 4.6-.4-1.3-14.4-4.6.5zm-11 17.2L121 17.4l6.5-1.2 2.9 16.2z"/><path d="M123 34.8l-3.3-18.2 8.5-1.5 3.2 18.2-8.5 1.5zm-1-16.6l2.5 14.2 4.6-.8-2.5-14.2-4.6.8zm-9.4 18.2l-4.2-16 6.4-1.6 4.3 15.8z"/><path d="M112 37.6L107 19.8l8.4-2.3 4.8 17.9-8.4 2.2zm-2.4-16.4l3.7 14 4.5-1.3-3.7-14-4.5 1.3zM108 37.8l-5.6-15.4-6.2 2.2 5.6 15.5 5.6 15.4 6.3-2.2-5.7-15.5z"/><path d="M106.8 56.8L94.8 24l8.2-3L115 54l-8.2 3zm-9.4-31.6l10.6 29 4.4-1.5-10.6-29-4.4 1.5zm-6 19.5l-7-14.9 6-2.8 7 15z"/><path d="M90.8 46L83 29.4l7.9-3.6 7.8 16.7-7.9 3.7zm-5.1-15.7l6.1 13.1 4.2-2-6-13-4.3 2zm-4.4 20L73.1 36l5.7-3.3L87.1 47z"/><path d="M81 51.6l-9.3-16 7.5-4.3 9.2 16-7.5 4.3zm-6.6-15.2l7.3 12.5 4-2.3L78.5 34l-4 2.3zm-6.6 3l9.5 13.5-5.5 3.8-9.4-13.5z"/><path d="M71.6 58L61 43l7-5L78.7 53l-7 5zm-7.8-14.6L72 55.3l3.8-2.7-8.3-11.8-3.8 2.6zm9.7 33L52.3 51.4l5.1-4.3 21.2 25.2z"/><path d="M73.3 77.9L51 51l6.6-5.5L80 72.3 73.3 78zM53.7 51.4l19.9 23.7 3.6-3-19.9-23.7-3.6 3zm-6 4l11.7 11.7-4.7 4.7L43 60.2z"/><path d="M54.7 73.2l-13-13 6-6.1 13 13-6 6.1zm-10.3-13l10.3 10.2 3.2-3.3L47.7 57l-3.3 3.3zm7 15.2L38.8 64.8l-4.3 5 12.6 10.7z"/><path d="M47.3 81.9L33 70l5.6-6.6 14.1 11.8-5.5 6.7zM36 69.8L47 79l3-3.5-11-9.3-3 3.6zm8.2 14.5l-13.5-9.5-3.8 5.5 13.5 9.4z"/><path d="M40.6 91.1l-15-10.6 4.9-7L45.6 84l-5 7.1zm-12.3-11l11.9 8.2 2.6-3.8L31 76.2 28.3 80zm4 23.7l-15-7-2.7 6 14.9 7z"/><path d="M30 111.1l-16.8-7.8 3.7-7.8 16.7 7.8L30 111zm-14.1-8.7l13 6 2-4.1-13-6.1-2 4.2zm-3.7 6.2l15.4 5.6-2.2 6.3-15.5-5.6z"/><path d="M26 121.8l-17.4-6.3 3-8.2 17.3 6.3-3 8.2zm-14.8-7.5l13.6 5 1.6-4.5-13.6-4.9-1.6 4.4zM8 120.8l15.9 4.3-1.7 6.4-15.9-4.3z"/><path d="M22.9 132.7L5 128l2.2-8.3 17.8 4.8-2.2 8.3zm-15.4-6.2l14 3.8 1.2-4.5-14-3.8-1.2 4.5zM3 146.1l16.4 1.4-.6 6.6-16.4-1.4z"/><path d="M19.7 155.2l-18.4-1.6.8-8.6 18.3 1.6-.7 8.6zm-16.2-3.4l14.4 1.2.4-4.6-14.4-1.3-.4 4.7zM2 158.9h16.5v6.7H2z"/><path d="M19.6 166.6H1v-8.7h18.5v8.7zm-16.5-2h14.5v-4.7H3v4.7zm-.7 7.2l16.4-1.4.6 6.6L3 178.4z"/><path d="M2 179.5l-.7-8.6 18.4-1.6.8 8.6L2 179.5zm1.5-6.8l.4 4.6 14.4-1.2-.4-4.7-14.4 1.3zM21.1 188.3l16.2-2.9-1.1-6.5-32.4 5.7 1.2 6.6 16.1-2.9z"/><path d="M4.1 192.3l-1.5-8.5 34.4-6 1.5 8.5-34.4 6zm.9-6.9l.8 4.6 30.4-5.4-.8-4.5L5 185.4zM6.3 197.3l15.9-4.3 1.7 6.4L8 203.7z"/><path d="M7.3 204.9l-2.2-8.4 17.8-4.7L25 200 7.3 205zm.2-7l1.2 4.6 14-3.8-1.2-4.5-14 3.7zM25.4 204l-15.5 5.6 2.3 6.3 15.4-5.6z"/><path d="M11.6 217.2l-3-8.2 17.3-6.3 3 8.1-17.3 6.4zm-.4-7l1.6 4.4 13.5-5-1.5-4.3-13.6 5zM29.5 214.7l-15 7 2.9 6 14.9-7z"/><path d="M16.9 229l-3.7-7.9 16.7-7.7 3.7 7.8L17 229zm-1-6.9l2 4.2 13-6-2-4.3-13 6.1zM37.8 230.7l14.3-8.2-3.4-5.8-28.4 16.5 3.3 5.8 14.2-8.3z"/><path d="M23.2 240.3l-4.3-7.5L49 215.4l4.3 7.5-30.2 17.4zm-1.6-6.7l2.3 4L50.7 222l-2.3-4-26.8 15.5zM40.4 234.8l-13.5 9.4 3.9 5.5 13.4-9.5z"/><path d="M30.5 251l-5-7 15.1-10.6 5 7-15.1 10.7zm-2.2-6.5l2.7 3.8 11.8-8.3-2.6-3.8-11.9 8.3zM34.5 254.6L47.1 244l4.3 5.1-12.6 10.6z"/><path d="M38.7 261.1l-5.6-6.6 14.2-11.9 5.5 6.7L38.7 261zm-2.8-6.4l3 3.6L50 249l-3-3.6-11 9.3zM43 264.3l11.7-11.6 4.7 4.7L47.7 269z"/><path d="M47.7 270.4l-6-6.1 13-13 6 6-13 13.1zm-3.3-6.1l3.3 3.3L58 257.4l-3.2-3.3-10.3 10.2zM291.5 203.7l-15.8-4.3 1.7-6.4 15.9 4.2z"/><path d="M292.3 204.9l-17.9-4.8 2.3-8.3 17.8 4.7-2.2 8.4zm-15.4-6.2l14 3.8 1.1-4.5-13.9-3.8-1.2 4.5zM279.6 181.8l-16.2-2.9-1.2 6.5 32.4 5.8 1.2-6.6-16.2-2.9z"/><path d="M295.4 192.3l-34.3-6 1.5-8.6 34.3 6-1.5 8.6zm-32-7.7l30.4 5.4.8-4.6-30.4-5.3-.8 4.5zM296.6 178.4l-16.4-1.4.6-6.7 16.4 1.5z"/><path d="M297.5 179.5l-18.4-1.6.8-8.6 18.4 1.6-.8 8.6zm-16.2-3.4l14.4 1.2.4-4.6-14.4-1.3-.4 4.7zM281 159h16.4v6.6H281z"/><path d="M298.4 166.6H280v-8.7h18.4v8.7zm-16.4-2h14.4v-4.7H282v4.7zM297.2 152.7l-16.4 1.4-.6-6.6 16.4-1.4z"/><path d="M279.9 155.2l-.8-8.6 18.4-1.6.8 8.6-18.4 1.6zm1.4-6.8l.4 4.6 14.4-1.2-.4-4.7-14.4 1.3zM278.4 136.2l-16.2 2.8 1.2 6.6 32.4-5.7-1.2-6.6-16.2 2.9z"/><path d="M262.6 146.8l-1.5-8.6 34.3-6 1.5 8.5-34.3 6zm.8-7l.8 4.6 30.4-5.3-.8-4.6-30.4 5.4z"/><g><path d="M293.3 127.2l-15.9 4.3-1.7-6.4 15.9-4.3z"/><path d="M276.7 132.7l-2.3-8.3 17.9-4.8 2.2 8.3-17.8 4.8zm.2-7l1.2 4.6 14-3.8-1.3-4.5-14 3.8z"/></g><g><path d="M289.7 114.9l-15.5 5.6-2.2-6.3 15.4-5.6z"/><path d="M273.6 121.8l-3-8.2 17.4-6.3 3 8.2-17.4 6.3zm-.4-7l1.6 4.4 13.6-5-1.6-4.3-13.6 5z"/></g><g><path d="M285 102.8l-14.9 7-2.8-6 14.9-7z"/><path d="M269.6 111.1l-3.6-7.8 16.7-7.8 3.6 7.8-16.7 7.8zm-1-6.8l2 4.2 13-6.1-1.9-4.2-13 6z"/></g><g><path d="M276 85.5l-14.2 8.3-14.3 8.2 3.3 5.7 28.5-16.4z"/><path d="M250.5 109.1l-4.4-7.5 30.3-17.4 4.3 7.5-30.2 17.4zm-1.6-6.8l2.3 4L278 91l-2.4-4-26.7 15.4z"/></g><g><path d="M272.6 80.3l-13.4 9.4-3.9-5.5 13.5-9.4z"/><path d="M259 91.1l-5-7 15-10.7 5 7.1-15 10.6zm-2.2-6.6l2.6 3.8 11.9-8.3-2.7-3.8-11.8 8.3z"/></g><g><path d="M265 69.9l-12.6 10.5-4.2-5 12.6-10.6z"/><path d="M252.3 81.9l-5.5-6.7 14-11.8 5.6 6.6-14 11.9zm-2.7-6.4l3 3.5 11-9.2-3-3.6-11 9.3z"/></g><g><path d="M240.2 67.1l11.6-11.6 4.7 4.7L245 71.8z"/><path d="M245 73.2l-6.2-6 13-13.1 6.2 6-13 13.1zm-3.4-6l3.3 3.2 10.2-10.2-3.3-3.3-10.2 10.2z"/></g><g><path d="M221 72.2L242.1 47l5.1 4.3-21.1 25.2z"/><path d="M226.2 77.9l-6.6-5.6L242 45.6l6.7 5.5L226.2 78zm-3.8-5.8l3.6 3 19.8-23.7-3.5-3-19.9 23.7z"/></g><g><path d="M237.2 43.2l-9.4 13.5-5.5-3.8 9.4-13.5z"/><path d="M228 58l-7-4.9L231.4 38l7.1 5L228 58zm-4.3-5.4l3.8 2.7 8.3-11.9-3.8-2.6-8.3 11.8z"/></g><g><path d="M212.5 47l8.2-14.3 5.8 3.3-8.2 14.3z"/><path d="M218.6 51.6l-7.5-4.3 9.3-16 7.5 4.4-9.3 16zm-4.7-5l4 2.3 7.2-12.5-4-2.3-7.2 12.5z"/></g><g><path d="M202.2 42l7-15 6 2.8-7 15z"/><path d="M208.7 46l-7.8-3.6 7.8-16.7 7.8 3.6-7.8 16.8zm-5.1-4.6l4.2 2 6-13-4.1-2-6.1 13z"/></g><path fill="#CD1816" d="M295.8 81.3l-2.5-4-140.8 74.1a21.9 21.9 0 0 0-25.4 17 22 22 0 0 0 3 16.6 22 22 0 0 0 14 9.6 22.3 22.3 0 0 0 16.5-3c4.7-3 8-7.6 9.4-13l125.8-97.3z"/><g fill="#CD1816"><path d="M126 256.6l-2.7 6.1h-.1l-2.8-6.1h-4.7l5.3 9.5-5.3 9.7h4.4l3-6.2h.2l2.8 6.2h4.5l-5.3-9.7 5.3-9.5zm16.1 0l-2.7 6.1h-.2l-2.7-6.1h-4.7l5.3 9.5-5.3 9.7h4.4l2.9-6.2h.3l2.8 6.2h4.5l-5.3-9.7 5.3-9.5zm16.1 0l-2.7 6.1h-.2l-2.7-6.1h-4.7l5.3 9.5-5.3 9.7h4.4l2.9-6.2h.3l2.7 6.2h4.6l-5.4-9.7 5.4-9.5zm16 0l-2.6 6.1h-.2l-2.7-6.1h-4.8l5.4 9.5-5.4 9.7h4.4l3-6.2h.2l2.8 6.2h4.6l-5.4-9.7 5.4-9.5zm16.2 0l-2.8 6.1h-.1l-2.7-6.1H180l5.3 9.5-5.3 9.7h4.4l3-6.2h.2l2.8 6.2h4.6l-5.4-9.7 5.4-9.5zm20.6 0h-4.6l-2.7 6.1h-.2l-2.7-6.1h-4.7l5.3 9.5-5.3 9.7h4.4l2.9-6.2h.3l2.8 6.2h4.5l-5.3-9.7z"/></g></svg>