<svg version="1" xmlns="http://www.w3.org/2000/svg" width="300" height="300"><g fill-rule="evenodd" clip-rule="evenodd"><path d="M238.9 287.1h-13.1c2.9-2.5 5.6-5 7.8-7.3l10-10v12.7c0 2.6-2.1 4.6-4.7 4.6zm-7-250.2c0-2.4-1.8-4.3-4.1-4.3H174v16.2H90.8V32.6H37.2A4.2 4.2 0 0 0 33 37v234.4c0 2.4 1.9 4.3 4.2 4.3h141l12.4 11.5H28.4c-2.6 0-4.6-2-4.6-4.6V25.7c0-2.5 2-4.6 4.6-4.6h88l-.1-2.3a16.2 16.2 0 1 1 32.2 2.3h90.4c2.6 0 4.6 2 4.6 4.6v192.4L232 229.6V37z"/><path fill="#CD1816" d="M53.8 99.7h148v9.3h-148v-9.3zM53.8 155.3h148v9.2h-148v-9.2zM53.8 208.5h148v9.2h-148v-9.2z"/><path fill="#13B500" d="M151.8 243.3v3.3s47.2 46.3 52 48.8c5 2.4 18.8-8.6 26-16.3 7.4-7.7 44.4-44.3 49-48.8 4.4-4.5 15.8-18.7 16.2-19.5.4-.8-1.6-8.5-3.3-9.8-1.6-1.2-10.5-6.9-13-9.7-2.4-2.9-4.5-.4-6.5 0s-26.4 26.4-32.5 32.5L207 256.3s-25.6-26.4-32.6-32.5c0 0-4 2-9.7 6.5a120 120 0 0 0-13 13"/></g></svg>