<svg version="1" xmlns="http://www.w3.org/2000/svg" width="300" height="300"><path fill-rule="evenodd" clip-rule="evenodd" d="M277.621 221.727a146.054 146.054 0 0 1-12.817 18.678l18.871 18.869-74.77 20.035 20.033-74.769 25.897 25.896c18.114-22.438 28.964-50.98 28.964-82.061 0-72.215-58.541-130.756-130.756-130.756-13.896 0-27.283 2.175-39.848 6.191-3.3-5.736-6.624-11.553-6.629-11.728 37.887-12.61 80.782-9.584 118.082 11.952 69.218 39.965 92.936 128.473 52.973 197.693zM69.574 47.73v50.767L40.533 81.73c-11.586 19.517-18.244 42.301-18.244 66.645 0 72.213 58.542 130.754 130.755 130.754 1.492 0 2.975-.033 4.455-.082l3.381 14.788c-27.342 1.652-55.455-4.418-80.951-19.138C13.721 236.473-10.849 153.834 22.11 86.145c0 0 1.97-4.682 6.835-11.104L2.537 59.794l67.037-38.703v20.288"/><path fill-rule="evenodd" clip-rule="evenodd" fill="#13B500" d="M203.973 93.598c2.123-.433 6.786 0 6.786 0s21.962 10.535 16.966 20.709c-.426.863-12.3 15.966-16.966 20.71-4.663 4.749-43.259 43.58-50.892 51.778-7.634 8.199-22.054 19.849-27.143 17.26-5.088-2.589-54.286-51.777-54.286-51.777v-3.451l23.75-20.712c7.21 6.473 33.929 34.518 33.929 34.518s66.532-68.767 67.856-69.035z"/></svg>